<svg width="67" height="67" viewBox="0 0 67 67" fill="none" xmlns="http://www.w3.org/2000/svg">
<rect x="0.5" y="0.5" width="66" height="66" rx="9.5" fill="#3D5AFE"/>
<rect x="0.5" y="0.5" width="66" height="66" rx="9.5" stroke="white"/>
<path d="M45.8616 39.7137C45.8616 44.8729 41.7796 49.0553 36.7442 49.0553C31.7089 49.0553 27.6269 44.8729 27.6269 39.7137C27.6269 34.5545 31.7089 30.3721 36.7442 30.3721C41.7796 30.3721 45.8616 34.5545 45.8616 39.7137ZM30.0531 39.7137C30.0531 43.5 33.0488 46.5694 36.7442 46.5694C40.4397 46.5694 43.4354 43.5 43.4354 39.7137C43.4354 35.9274 40.4397 32.8579 36.7442 32.8579C33.0488 32.8579 30.0531 35.9274 30.0531 39.7137Z" fill="white"/>
<path d="M47.7827 54.6889L41.7044 47.2156L43.224 45.6587L48.6944 50.9523L50.214 52.5092L50.5179 52.8206V53.132V53.4434V53.7548L50.214 54.0661L49.9101 54.3775L49.6061 54.6889L49.3022 55.0003H48.6944L47.7827 54.6889Z" fill="white"/>
<path d="M26.7152 45.6299L25.8034 43.1388L23.676 43.7616L21.8526 43.1388L17.9017 41.8932L13.6469 40.6477L12.7352 40.3363V39.9172V16.9823V16.3595L21.2447 19.162L21.5487 19.4733L21.8526 19.7847L22.1565 20.0961V40.0249V40.6477H24.5878H24.8917V20.7189V20.0961V19.7847L25.1956 19.4733L25.4995 19.162L34.009 16.3595V16.6709V26.9466V28.1922L36.7442 27.5694V27.258V14.1798V13.8684V13.557L36.4403 13.2456H36.1364H35.8325H35.5286H34.6169L23.3721 16.9823L10.9117 13.2456L10 13.8684V42.516L23.3721 46.8754L26.7152 45.6299Z" fill="white"/>
<path d="M57.4103 45.6297C57.4103 47.6934 55.7775 49.3664 53.7633 49.3664C51.7492 49.3664 50.1164 47.6934 50.1164 45.6297C50.1164 43.566 51.7492 41.8931 53.7633 41.8931C55.7775 41.8931 57.4103 43.566 57.4103 45.6297ZM52.3589 45.6297C52.3589 46.4244 52.9877 47.0686 53.7633 47.0686C54.539 47.0686 55.1677 46.4244 55.1677 45.6297C55.1677 44.835 54.539 44.1908 53.7633 44.1908C52.9877 44.1908 52.3589 44.835 52.3589 45.6297Z" fill="white"/>
<path d="M51.636 38.1566H47.6851V35.6655H51.3321H52.5477L53.1555 35.9769L54.0673 36.5997C54.2699 36.8073 54.7359 37.347 54.979 37.8452L55.2829 38.468V42.2047L54.6751 41.8933H53.4594H53.1555L52.5477 42.2047V41.8933V40.0249V39.4022V39.0908V38.7794L52.2438 38.468L51.636 38.1566Z" fill="white"/>
<path d="M46.4695 32.2402L44.95 30.0605V29.7491H51.94L52.2439 29.4377L52.5478 29.1263L52.8517 28.8149V26.9466V25.3896L53.4595 25.701H54.0673H54.6752L55.283 25.3896V29.1263V29.7491L54.9791 30.0605L54.3713 30.6832L53.7634 31.306L53.1556 31.9288L52.5478 32.2402H46.4695Z" fill="white"/>
<path d="M57.4103 21.9642C57.4103 24.0279 55.7775 25.7008 53.7633 25.7008C51.7492 25.7008 50.1164 24.0279 50.1164 21.9642C50.1164 19.9005 51.7492 18.2275 53.7633 18.2275C55.7775 18.2275 57.4103 19.9005 57.4103 21.9642ZM52.3589 21.9642C52.3589 22.7589 52.9877 23.4031 53.7633 23.4031C54.539 23.4031 55.1677 22.7589 55.1677 21.9642C55.1677 21.1695 54.539 20.5253 53.7633 20.5253C52.9877 20.5253 52.3589 21.1695 52.3589 21.9642Z" fill="white"/>
<path d="M50.1164 15.7366C50.1164 17.8003 48.4836 19.4733 46.4695 19.4733C44.4553 19.4733 42.8225 17.8003 42.8225 15.7366C42.8225 13.673 44.4553 12 46.4695 12C48.4836 12 50.1164 13.673 50.1164 15.7366ZM45.0651 15.7366C45.0651 16.5313 45.6938 17.1756 46.4695 17.1756C47.2451 17.1756 47.8738 16.5313 47.8738 15.7366C47.8738 14.9419 47.2451 14.2977 46.4695 14.2977C45.6938 14.2977 45.0651 14.9419 45.0651 15.7366Z" fill="white"/>
<path d="M38.8717 26.324V23.8329H44.0382L44.646 23.5215L45.2538 22.8988V19.1621L45.8616 19.4735H46.4695H47.0773L47.6851 19.1621V23.5215L47.3812 24.1443L47.0773 24.7671L46.4695 25.3899L45.8616 26.0126L44.9499 26.324H38.8717Z" fill="white" stroke="white"/>
</svg>
